<svg xmlns="http://www.w3.org/2000/svg" viewBox="0 0 120 120">
  <!-- Prohibition circle background -->
  <circle cx="60" cy="60" r="56" fill="#FEE2E2" fill-opacity="0.4"/>
  <circle cx="60" cy="60" r="56" fill="none" stroke="#DC2626" stroke-width="5"/>
  <!-- Candy icon scaled from 1024 to fit inside circle -->
  <g transform="translate(20, 18) scale(0.078)">
    <path d="M537.225476 296.123203s96.447809-86.32994 130.715039-154.104697c28.603987-41.219668 49.564896-143.376764-37.708918-97.437725-34.750678 18.290437-53.30586 56.655462-103.147011-15.309176-10.302039-14.883282-37.847046-60.937427-69.156037 6.238777 0.471937 3.994199-29.651457 49.967769-80.309865 8.207099 0 0-77.121413-50.117408-70.364657 26.670196 5.444542 21.50191 3.222984 110.502323 117.109441 200.907036zM535.176579 727.853476s96.459319 86.32994 130.726549 154.104697c28.592476 41.219668 49.564896 143.376764-37.708917 97.437726-34.762189-18.290437-53.30586-56.655462-103.147012 15.309176-10.359593 14.883282-37.847046 61.006491-69.156037-6.238777 0.471937-3.982688-29.662967-49.967769-80.321376-8.2071 0 0-77.121413 50.117408-70.364656-26.670196 5.456052-21.4904 3.222984-110.502323 117.109441-200.907035z" fill="#F09AC1"/>
    <path d="M531.942084 291.956345s84.545788-75.68258 114.577095-135.077579c25.070214-36.131957 43.452736-125.673371-33.047101-85.409087-30.468713 16.034347-46.733274 49.656981-90.416223-13.421428-9.035867-13.041576-33.173718-53.420967-60.626639 5.467563 0.414384 3.453198-25.991067 43.798056-70.399188 7.194162 0 0-67.613609-43.924673-61.674109 23.378147 4.776923 18.842948 2.820111 96.850682 102.652054 176.113077zM528.120545 739.571326s84.545788 75.694091 114.577096 135.08909c25.070214 36.131957 43.452736 125.673371-33.047101 85.409087-30.468713-16.034347-46.733274-49.668492-90.416224 13.421428-9.035867 13.041576-33.173718 53.420967-60.626638-5.479074 0.414384-3.453198-25.991067-43.740503-70.399189-7.182651 0 0-67.613609 43.924673-61.674108-23.389658 4.776923-18.831437 2.820111-96.850682 102.652053-176.113077z" fill="#E772AC"/>
    <path d="M228.923996 519.890407a283.887373 274.287484 90 1 0 548.574968 0 283.887373 274.287484 90 1 0-548.574968 0Z" fill="#F6B1D0"/>
    <path d="M229.246294 521.593984a265.896214 256.90639 90 1 0 513.812779 0 265.896214 256.90639 90 1 0-513.812779 0Z" fill="#FCD2E8"/>
  </g>
  <!-- Red diagonal prohibition line -->
  <line x1="20" y1="20" x2="100" y2="100" stroke="#DC2626" stroke-width="5" stroke-linecap="round"/>
</svg>