<svg xmlns="http://www.w3.org/2000/svg" viewBox="0 0 120 120" fill="none">
  <rect x="4" y="4" width="112" height="112" rx="16" fill="#5EEAD4"/>
  <!-- Sanitizer dispenser -->
  <rect x="50" y="8" width="24" height="58" rx="5" fill="white"/>
  <!-- Dispenser nozzle -->
  <rect x="56" y="4" width="12" height="8" rx="2" fill="#E5E7EB"/>
  <!-- Dispenser stripe/label -->
  <rect x="58" y="18" width="8" height="35" rx="2" fill="#38BDF8"/>
  <!-- Dispenser cap -->
  <rect x="48" y="62" width="28" height="6" rx="2" fill="#D1D5DB"/>
  <!-- Drops falling from dispenser -->
  <ellipse cx="62" cy="76" rx="4" ry="5" fill="white" opacity="0.8"/>
  <ellipse cx="58" cy="82" rx="3" ry="4" fill="white" opacity="0.6"/>
  <ellipse cx="66" cy="84" rx="2.5" ry="3" fill="white" opacity="0.5"/>
  <!-- Hand receiving sanitizer -->
  <path d="M30 95 Q28 82 42 78 L60 74 Q72 72 78 80 L80 85 Q82 92 75 96 L50 102 Q34 104 30 95Z" fill="white"/>
  <!-- Fingers -->
  <path d="M42 78 Q38 72 41 68" stroke="white" stroke-width="3.5" fill="none" stroke-linecap="round"/>
  <path d="M52 75 Q50 68 53 64" stroke="white" stroke-width="3.5" fill="none" stroke-linecap="round"/>
  <path d="M62 74 Q62 67 64 63" stroke="white" stroke-width="3" fill="none" stroke-linecap="round"/>
  <!-- Step number -->
  <circle cx="22" cy="22" r="14" fill="white"/>
  <text x="22" y="28" text-anchor="middle" fill="#0D9488" font-size="18" font-weight="bold" font-family="Arial, sans-serif">6</text>
</svg>