<svg xmlns="http://www.w3.org/2000/svg" viewBox="0 0 120 120" fill="none">
  <rect x="4" y="4" width="112" height="112" rx="16" fill="#F59E0B"/>
  <!-- Hand palm -->
  <path d="M25 80 Q22 60 40 50 L55 45 Q70 40 78 52 L82 60 Q88 72 80 82 L60 92 Q40 98 25 80Z" fill="white"/>
  <!-- Thumb -->
  <path d="M40 50 Q32 42 36 35" stroke="white" stroke-width="5" fill="none" stroke-linecap="round"/>
  <!-- Fingers curled -->
  <path d="M55 45 Q55 35 58 30" stroke="white" stroke-width="4.5" fill="none" stroke-linecap="round"/>
  <path d="M65 43 Q67 33 70 28" stroke="white" stroke-width="4.5" fill="none" stroke-linecap="round"/>
  <path d="M75 48 Q78 38 80 34" stroke="white" stroke-width="4" fill="none" stroke-linecap="round"/>
  <!-- Soap bubbles -->
  <circle cx="55" cy="58" r="8" fill="white" fill-opacity="0.4" stroke="white" stroke-width="1.5"/>
  <circle cx="68" cy="52" r="6" fill="white" fill-opacity="0.3" stroke="white" stroke-width="1.5"/>
  <circle cx="48" cy="48" r="5" fill="white" fill-opacity="0.3" stroke="white" stroke-width="1.5"/>
  <circle cx="62" cy="42" r="4" fill="white" fill-opacity="0.3" stroke="white" stroke-width="1"/>
  <circle cx="74" cy="62" r="5" fill="white" fill-opacity="0.3" stroke="white" stroke-width="1.5"/>
  <!-- Step number -->
  <circle cx="95" cy="95" r="14" fill="white"/>
  <text x="95" y="101" text-anchor="middle" fill="#F59E0B" font-size="18" font-weight="bold" font-family="Arial, sans-serif">2</text>
</svg>